<?xml version="1.0" encoding="UTF-8"?>
<svg xmlns="http://www.w3.org/2000/svg" viewBox="0 0 480 160">
  <defs>
    <linearGradient id="g" x1="0" x2="1" y1="0" y2="1">
      <stop offset="0%" stop-color="#2ecc71"/>
      <stop offset="100%" stop-color="#27ae60"/>
    </linearGradient>
  </defs>
  <rect width="480" height="160" rx="24" fill="url(#g)"/>
  <!-- Leaf -->
  <path d="M120,80c0,-40 60,-60 120,-60c-20,50 -60,100 -120,120c-20,-20 -20,-40 0,-60z" fill="#ecf0f1" opacity="0.9"/>
  <!-- Simple car silhouette -->
  <g transform="translate(140,70)">
    <rect x="0" y="10" width="140" height="30" rx="10" fill="#1f2937" opacity="0.9"/>
    <path d="M10,10c10,-20 40,-20 60,-20h30c15,0 25,10 30,20" fill="none" stroke="#1f2937" stroke-width="10"/>
    <circle cx="30" cy="50" r="12" fill="#ecf0f1"/>
    <circle cx="110" cy="50" r="12" fill="#ecf0f1"/>
  </g>
  <!-- Fun bubbles -->
  <circle cx="380" cy="40" r="10" fill="#ecf0f1" opacity="0.8"/>
  <circle cx="400" cy="25" r="6" fill="#ecf0f1" opacity="0.8"/>
  <text x="24" y="148" font-family="Verdana, sans-serif" font-size="28" fill="#0b3d2e" font-weight="bold">EcoRide — covoiturer écolo & fun</text>
</svg>
